<svg width="466" height="231" viewBox="0 0 466 231" fill="none" xmlns="http://www.w3.org/2000/svg">
<g filter="url(#filter0_d_123_217)">
<path d="M59.4201 79.1653C78.2663 78.806 90.9803 74.3553 98.4843 59.682C103.959 48.961 116.858 26.6034 157.04 27.1597C133.699 21.3066 122.979 3.5387 90.9112 3.52711C34.4877 3.50393 4.34521 41.265 4.34521 85.169C10.2584 53.8173 31.9518 29.7095 67.2122 23.868C52.9305 26.9163 16.0795 47.9526 16.0795 91.9957C16.0795 130.394 63.6504 154.096 89.6202 154.096C57.2185 142.923 33.8307 102.531 40.9542 81.7963C48.5734 103.308 57.7718 114.608 82.0702 124.669C103.51 133.535 134.425 133.385 151.623 126.975C138.955 127.717 129.607 125.283 120.074 121.134C100.363 112.534 94.934 98.8571 59.4201 79.1653ZM45.6456 71.7938C36.6663 60.9569 50.0834 41.4505 63.0625 32.2594C73.6787 24.7373 89.8623 18.2815 113.285 24.7953C95.1876 30.1616 93.3433 46.388 83.9721 58.778C73.4943 72.6515 52.1467 79.6405 45.6456 71.7938Z" fill="#ECF2F8"/>
<path d="M185.327 97.6633C180.336 104.652 168.141 108.871 152.165 107.596C135.947 106.31 116.628 93.9892 116.628 80.7531C116.628 67.517 132.143 69.0701 138.068 70.3682C133.111 67.8763 129.446 63.4372 131.705 56.3556C134.137 48.7292 148.015 40.1639 158.481 40.1639C171.518 40.1639 175.979 45.5882 182.446 50.7343C180.486 45.0782 176.244 32.9896 153.202 32.9896C132.085 32.9896 109.596 47.7788 109.723 61.4901C109.758 64.9787 111.118 68.8731 115.429 70.3914C110.277 72.3038 107.372 77.3571 102.68 79.2348C97.2513 81.4137 89.2978 82.8162 81.644 82.8162C108.213 89.3994 109.712 119.847 152.937 118.804C169.616 118.398 181.155 109.879 185.327 97.6633Z" fill="#ECF2F8"/>
<path d="M206.663 48.1033C175.414 50.3634 180.854 82.1672 201.637 90.5122C190.502 81.1704 193.811 64.8165 203.896 54.7793C212.472 46.2605 229.417 42.6211 243.514 46.2141C241.508 44.3249 232.679 39.0629 218.535 39.0629C196.819 39.0629 192.715 39.0281 177.304 32.1899C186.618 41.0564 192.45 47.8368 206.663 48.1033Z" fill="#ECF2F8"/>
<path d="M221.014 54.2113C208.519 58.8822 201.614 71.1563 204.876 79.9996C208.138 88.843 220.345 90.9061 232.84 86.2352C245.335 81.5643 252.378 69.5568 249.104 60.7134C245.842 51.8816 233.52 49.552 221.014 54.2113ZM235.999 75.0506C232.183 82.8972 225.163 87.2204 220.172 84.7748C215.181 82.3293 214.109 74.0306 217.925 66.184C221.74 58.3374 228.391 54.3388 233.382 56.7959C238.373 59.253 239.814 67.1924 235.999 75.0506Z" fill="#ECF2F8"/>
<path d="M221.936 96.0753C248.067 102.16 268.838 91.6594 268.838 74.8651C268.838 73.3584 268.746 72.0603 268.608 70.9012C268.135 67.1576 270.014 63.4603 273.438 61.8956C275.005 61.177 276.838 60.7713 278.947 60.7713C292.584 60.7713 294.128 76.3139 286.313 80.9268C296.099 80.9268 299.995 71.6662 299.995 66.9258C299.995 62.1738 296.226 51.8468 282.06 51.8468C272.354 51.8468 267.974 58.546 266.164 62.7533C262.718 56.0773 256.562 52.8552 251.617 50.3285C261.934 59.0444 258.833 74.6449 254.061 80.9964C249.381 87.2203 240.782 95.1365 221.936 96.0753Z" fill="#ECF2F8"/>
<path d="M246.2 173.695C277.195 173.626 312.432 150.295 323.187 136.722C317.827 140.536 302.554 141.173 294.624 134.219C294.624 138.345 292.572 161.85 258.499 161.839C228.08 161.827 213.256 145.937 213.256 132.017C213.256 118.097 232.863 109.416 249.911 109.416C266.959 109.416 275.074 114.098 283.454 120.206C281.748 113.241 281.057 108.906 285.333 98.7643C275.074 106.495 250.638 103.4 231.664 103.4C202.79 103.4 172.763 116.173 172.763 141.602C172.763 175.735 214.847 183.466 233.278 181.31C206.029 178.992 184.382 162.522 188.854 138.055C190.018 151.071 196.681 156.89 201.13 160.355C210.905 167.97 225.993 173.73 246.2 173.695Z" fill="#ECF2F8"/>
<path d="M291.569 109.427C291.177 119.14 296.33 129.884 313.966 129.884C331.602 129.884 340.097 111.201 340.097 97.8255C340.097 84.4503 334.691 75.7808 325.804 69.5684C334.576 87.1161 331.256 109.056 317.458 113.299C304.906 117.17 299.016 101.986 306.75 86.6525C299.165 93.3749 291.95 99.7147 291.569 109.427Z" fill="#ECF2F8"/>
<path d="M437.152 49.0652C402.226 49.0652 385.385 72.3733 377.881 84.1722C375.472 77.6237 365.686 69.6959 356.868 69.5569C348.004 69.4178 342.114 72.1994 342.114 72.1994C352.949 90.8598 351.22 111.711 338.149 130.638C325.054 149.588 304.929 169.222 265.957 177.52C265.957 177.52 330.553 174.97 360.983 133.57C363.807 142.645 372.487 146.273 381.466 146.273C402.664 146.273 441.532 118.537 441.532 82.6423C441.532 55.9267 416.289 57.9318 401.604 65.593C406.007 62.0927 434.213 50.2822 445.532 65.6857C450.131 71.9445 454.073 85.4124 445.659 105.974C453.094 95.6813 462.257 79.1072 461.623 68.0385C460.989 57.5493 454.292 49.0652 437.152 49.0652ZM417.764 80.8921C426.052 89.5153 424.392 106.53 409.649 120.867C394.906 135.204 375.253 142.726 366.954 134.092C358.666 125.468 362.366 106.553 377.121 92.2158C391.875 77.8787 409.476 72.2574 417.764 80.8921Z" fill="#ECF2F8"/>
<path d="M427.274 150.469C427.078 147.525 429.176 144.024 431.089 141.59C433.752 138.195 435.412 133.628 432.634 131.507C430.109 129.595 425.061 131.02 421.821 133.976C418.917 136.63 416.98 140.617 416.75 144.905C416.381 151.755 417.868 159.312 413.764 163.253C411.459 165.466 405.292 164.041 401.661 165.849C402.249 164.122 404.601 161.908 408.082 159.497C415.263 154.56 416.807 147.467 410.825 145.612C404.843 143.758 398.964 148.035 396.324 153.714C395.667 152.08 392.186 149.333 386.515 150.689C370.793 154.688 371.288 171.47 373.398 175.446C371.403 174.576 365.329 169.569 361.421 167.611C357.744 165.756 354.448 164.47 348.926 164.562C353.779 162.453 357.629 163.577 362.931 163.508C367.288 163.461 373.467 160.691 373.755 156.217C374.032 151.894 370.043 148.394 364.268 148.278C358.482 148.162 354.77 150.735 350.528 155.313C357.883 150.202 364.603 152.172 364.499 155.823C364.395 159.474 354.217 158.385 346.148 161.734C337.526 165.316 321.458 174.6 305.655 175.932C324.051 176.593 330.311 172.444 343.981 172.71C357.652 172.977 361.133 178.563 372.13 179.097C385.846 179.769 393.569 170.983 396.889 160.286C399.702 151.222 403.033 149.912 404.566 150.527C406.099 151.141 407.171 153.76 403.171 157.979C397.65 163.797 394.826 173.696 389.57 176.929C392.359 175.214 404.877 174.31 408.75 172.942C413.637 171.227 421.441 166.463 420.473 155.65C420.139 151.883 419.424 147.849 419.678 145.079C420.127 140.084 423.147 137.58 425.291 138.867C427.723 140.339 424.496 143.978 423.85 148.719C423.205 153.459 424.023 159.312 421.499 166.544C432.853 159.671 437.429 151.326 439.953 136.734C435.896 145.983 431.124 143.514 427.274 150.469ZM389.12 165.443C387.702 171.111 383.968 174.634 381.201 173.927C378.435 173.232 377.247 169.071 378.665 163.403C380.083 157.736 383.426 153.76 386.273 154.015C389.892 154.351 390.538 159.776 389.12 165.443Z" fill="#ECF2F8"/>
<path d="M173.005 91.1381C163.623 91.0801 158.597 83.6624 158.597 74.0772C158.597 64.4921 163.842 58.2333 170.677 57.1322C174.446 56.5179 177.316 57.2018 179.138 58.1869C176.406 53.5276 170.089 51.8702 164.752 51.8702C152.58 51.8702 142.725 61.9538 142.725 74.3901C142.725 86.8265 152.592 96.9101 164.752 96.9101C170.516 96.9101 180.498 95.9249 184.405 85.5168C182.849 86.6642 178.308 91.1729 173.005 91.1381Z" fill="#ECF2F8"/>
<path d="M324.328 25.085L325.665 27.5305C329.296 34.2065 334.76 39.7003 341.399 43.3512L343.831 44.6957L341.399 46.0402C334.76 49.6911 329.296 55.1849 325.665 61.8609L324.328 64.3065L322.991 61.8609C319.36 55.1849 313.896 49.6911 307.257 46.0402L304.825 44.6957L307.257 43.3512C313.896 39.7003 319.36 34.2065 322.991 27.5305L324.328 25.085Z" fill="#ECF2F8"/>
<path d="M349.03 0.24707L350.367 2.69262C353.998 9.36862 359.462 14.8624 366.101 18.5133L368.533 19.8578L366.101 21.2023C359.462 24.8532 353.998 30.347 350.367 37.023L349.03 39.4686L347.693 37.023C344.062 30.347 338.598 24.8532 331.959 21.2023L329.527 19.8578L331.959 18.5133C338.598 14.8624 344.062 9.36862 347.693 2.69262L349.03 0.24707Z" fill="#ECF2F8"/>
<path d="M373.732 25.085L375.069 27.5305C378.7 34.2065 384.163 39.7003 390.803 43.3512L393.235 44.6957L390.803 46.0402C384.163 49.6911 378.7 55.1849 375.069 61.8609L373.732 64.3065L372.395 61.8609C368.764 55.1849 363.3 49.6911 356.661 46.0402L354.229 44.6957L356.661 43.3512C363.3 39.7003 368.764 34.2065 372.395 27.5305L373.732 25.085Z" fill="#ECF2F8"/>
</g>
<g filter="url(#filter1_d_123_217)">
<path d="M112.696 166.37C112.184 166.293 111.649 166.17 111.158 165.917L110.338 165.492C108.949 164.77 107.179 165.241 106.219 166.556L105.828 166.355C107.732 163.763 110.086 163.003 111.651 163.815L119.821 168.052C121.217 168.774 122.995 168.295 123.954 166.988L124.345 167.189C122.441 169.773 120.087 170.541 118.499 169.714L117.786 169.342C116.827 168.843 116.206 167.959 115.895 167.414L115.735 167.431C115.888 168.1 115.836 168.825 115.449 169.576C115.359 169.753 115.285 169.899 114.992 170.283L108.956 178.452C108.281 179.367 106.79 179.584 105.793 179.07C104.964 178.6 104.46 177.882 104.38 176.983L104.5 176.822C104.715 176.934 104.95 176.877 105.093 176.677L112.696 166.37Z" fill="#ECF2F8"/>
<path d="M125.634 165.938C125.745 165.7 125.697 165.526 125.498 165.429L125.618 165.268C126.589 164.875 127.588 164.9 128.477 165.294C129.381 165.725 129.698 166.689 129.297 167.555C129.252 167.647 129.163 167.793 129.005 168.031L122.73 177.224C124.667 176.034 127.179 175.767 129.203 176.726C130.997 177.573 131.648 179.067 130.935 180.569C130.853 180.738 130.689 181.03 130.509 181.283L126.742 186.795C126.562 187.056 126.465 187.217 126.45 187.256C126.361 187.44 126.432 187.599 126.623 187.688L126.511 187.857C125.532 188.235 124.549 188.216 123.653 187.839C122.733 187.408 122.409 186.466 122.817 185.593C122.862 185.493 122.974 185.324 123.124 185.109L126.546 180.074C126.718 179.836 126.853 179.613 126.919 179.475C127.35 178.563 127.096 177.72 126.199 177.296C124.873 176.672 122.409 177.724 121.263 179.399L117.653 184.695L117.426 184.759C116.941 184.422 116.388 184.093 115.844 183.833C115.261 183.558 114.657 183.344 114.091 183.184L114.035 182.979L125.634 165.938Z" fill="#ECF2F8"/>
<path d="M141.044 181.955C143.312 182.933 144.655 184.914 144.025 186.378C143.394 187.834 141.419 189.573 136.423 187.423L134.622 186.645C133.688 188.867 133.973 190.914 135.429 191.536C136.923 192.181 138.454 192.086 139.888 191.588L140.133 192.294C138.175 193.012 135.937 193.268 133.899 192.393C130.957 191.126 129.723 188.13 130.895 185.425C132.488 181.724 137.434 180.391 141.059 181.947L141.044 181.955ZM137.099 186.63C139.015 187.453 140.602 186.404 141.025 185.416C141.41 184.512 141.001 183.465 140.104 183.079C138.258 182.286 136.463 183.253 135.083 185.755L137.106 186.63L137.099 186.63Z" fill="#ECF2F8"/>
<path d="M162.033 186.158C162.416 186.298 162.731 186.462 163.03 186.61C163.291 186.752 163.544 186.879 163.804 186.974C164.516 187.24 165.225 187.201 166.31 186.22L167.075 187.072L163.247 190.671L162.497 189.803L163.055 189.286C162.391 188.592 161.79 188.066 160.794 187.697C157.923 186.627 155.307 191.461 154.539 193.521C153.469 196.392 153.909 198.697 155.677 199.353C156.841 199.789 158.426 199.693 159.609 199.214L159.884 199.904C157.966 200.72 155.744 201.091 153.662 200.316C150.453 199.12 149.176 195.645 150.467 192.168C152.216 187.451 157.799 184.578 162.041 186.158L162.033 186.158Z" fill="#ECF2F8"/>
<path d="M166.087 193.51C166.168 193.272 166.113 193.098 165.891 193.024L165.98 192.84C166.896 192.341 167.878 192.238 168.819 192.493C169.783 192.801 170.228 193.695 169.935 194.613C169.898 194.721 169.869 194.82 169.816 194.92L167.062 200.335C166.839 200.764 166.698 201.063 166.654 201.201C166.345 202.165 166.706 202.969 167.647 203.27C169.04 203.718 171.356 202.363 172.279 200.553L174.43 196.319C174.584 195.853 174.45 195.481 174.029 195.349L174.491 194.444C175.104 194.726 176.246 195.222 176.996 195.465C177.44 195.612 178.571 195.857 179.067 195.927L174.616 204.679C174.497 204.901 174.467 204.978 174.452 205.016C174.349 205.338 174.497 205.565 174.818 205.675C174.941 205.712 175.055 205.718 175.215 205.708L175.377 205.866L175.388 206.743L175.23 206.905C174.049 206.95 173.019 206.901 171.894 206.541C170.747 206.174 170.207 205.076 170.567 203.981C170.641 203.752 170.73 203.568 171.088 202.893C169.321 204.324 166.867 204.903 164.731 204.213C162.841 203.603 162.009 202.203 162.523 200.619C162.582 200.435 162.678 200.205 162.856 199.853L166.094 193.487L166.087 193.51Z" fill="#ECF2F8"/>
<path d="M181.921 198.073L182.003 197.889C182.888 197.329 183.877 197.18 184.817 197.397C185.788 197.659 186.287 198.545 186.031 199.478C185.981 199.685 185.788 200.121 185.542 200.635C187.034 199.222 188.962 198.512 190.621 198.957C193.168 199.643 194.436 201.708 193.787 204.14C192.271 209.807 185.371 209.67 181.566 209.602L178.51 216.469C178.213 217.136 177.97 217.794 177.795 218.444C177.641 219.003 177.557 219.56 177.525 220.094L177.344 220.256L176.422 220.29L176.245 220.148L175.868 214.199C175.839 213.727 175.931 213.139 176.091 212.55C176.296 211.793 176.606 211.027 176.866 210.422L182.125 198.558C182.191 198.313 182.12 198.139 181.898 198.08L181.921 198.073ZM189.908 203.616C190.39 201.826 190.091 200.458 189.15 200.21C187.514 199.773 185.372 201.026 184.452 203.103L181.848 208.966C187.335 208.236 189.34 205.726 189.908 203.616Z" fill="#ECF2F8"/>
<path d="M204.588 204.092C204.688 203.58 204.509 203.262 204.074 203.176L204.42 202.219C205.063 202.424 206.264 202.783 207.028 202.934C207.486 203.02 208.639 203.135 209.142 203.144L205.801 212.302C205.712 212.547 205.661 212.684 205.654 212.723C205.596 213.005 205.782 213.277 206.058 213.335C206.172 213.357 206.287 213.363 206.507 213.33L206.676 213.465L206.794 214.332L206.659 214.509C205.487 214.699 204.459 214.772 203.298 214.55C202.045 214.306 201.453 213.262 201.668 212.169C201.697 212.009 201.748 211.879 201.859 211.572L204.588 204.099L204.588 204.092ZM207.985 199.507L206.649 197.519C206.525 197.33 206.484 197.109 206.52 196.911C206.556 196.712 206.675 196.52 206.864 196.396L208.853 195.061C209.042 194.936 209.262 194.903 209.454 194.947C209.652 194.982 209.844 195.094 209.968 195.283L211.304 197.272C211.428 197.461 211.469 197.681 211.433 197.88C211.397 198.078 211.278 198.27 211.089 198.395L209.1 199.73C208.911 199.854 208.691 199.895 208.492 199.859C208.294 199.824 208.102 199.704 207.977 199.515L207.985 199.507Z" fill="#ECF2F8"/>
<path d="M210.03 214.125C211.764 214.401 213.069 213.913 213.225 212.912C213.296 212.477 213.235 211.898 212.167 210.532C211.586 209.776 210.555 208.371 210.774 206.974C211.022 205.4 212.778 203.839 215.154 204.214C215.444 204.256 215.757 204.352 215.995 204.425C216.247 204.506 216.5 204.579 216.744 204.614C217.691 204.763 218.554 204.249 219.122 203.388L220.031 204.101L217.902 207.092C217.341 206.688 216.735 206.398 216.208 206.32C215.231 206.165 214.803 206.749 214.725 207.23C214.655 207.666 214.799 208.258 215.822 209.626C216.388 210.396 217.403 211.794 217.184 213.192C216.95 214.658 215.412 216.636 212.136 216.119C210.99 215.935 209.301 214.942 208.933 214.108L209.005 213.833C209.297 213.959 209.732 214.068 210.023 214.117L210.03 214.125Z" fill="#ECF2F8"/>
<path d="M227.554 207.859L227.829 206.674L229.828 206.817L230.48 204.05C230.741 202.941 231.813 202.136 232.935 202.213C233.896 202.286 234.634 202.78 235.055 203.575L235.012 203.774C234.775 203.754 234.579 203.901 234.521 204.138L233.826 207.104L234.825 207.175C236.267 207.28 237.679 206.836 238.284 205.845L239.267 206.435L237.684 209.077C236.739 208.516 235.671 208.438 234.473 208.354L233.55 208.289L231.95 215.161C231.892 215.436 231.783 215.894 231.777 216.001C231.725 216.772 232.194 217.086 232.858 217.131C234.109 217.223 236.088 216.383 236.76 215.857L237.062 216.234C235.447 217.557 233.424 218.535 231.204 218.371C229.297 218.234 227.868 216.704 227.998 214.866C228.011 214.683 228.046 214.446 228.133 214.094L229.545 208.01L227.546 207.866L227.554 207.859Z" fill="#ECF2F8"/>
<path d="M242.888 198.265C242.884 198.006 242.768 197.863 242.547 197.866L242.591 197.667C243.305 196.896 244.215 196.504 245.191 196.469C246.189 196.472 246.892 197.218 246.888 198.171C246.889 198.27 246.869 198.438 246.826 198.72L245.047 209.703C246.297 207.805 248.453 206.498 250.695 206.509C252.676 206.515 253.894 207.59 253.891 209.252C253.894 209.443 253.86 209.771 253.81 210.084L252.74 216.675C252.69 216.988 252.67 217.179 252.67 217.217C252.672 217.415 252.796 217.536 253.009 217.541L252.981 217.739C252.259 218.495 251.357 218.895 250.381 218.93C249.367 218.927 248.673 218.211 248.676 217.251C248.675 217.144 248.703 216.938 248.745 216.678L249.709 210.668C249.759 210.377 249.793 210.118 249.792 209.965C249.794 208.952 249.207 208.303 248.216 208.3C246.753 208.295 244.963 210.291 244.637 212.292L243.617 218.624L243.436 218.786C242.855 218.686 242.214 218.618 241.612 218.618C240.971 218.618 240.324 218.687 239.746 218.77L239.607 218.612L242.895 198.265L242.888 198.265Z" fill="#ECF2F8"/>
<path d="M263.679 206.168C266.155 206.084 268.213 207.309 268.263 208.901C268.32 210.486 267.267 212.908 261.827 213.088L259.861 213.158C259.967 215.573 261.093 217.297 262.678 217.247C264.301 217.19 265.649 216.457 266.741 215.391L267.258 215.926C265.798 217.408 263.876 218.597 261.651 218.678C258.444 218.786 256.054 216.597 255.957 213.656C255.816 209.625 259.732 206.307 263.679 206.175L263.679 206.168ZM262.104 212.079C264.192 212.008 265.178 210.38 265.142 209.305C265.107 208.322 264.29 207.547 263.307 207.582C261.296 207.652 260.089 209.298 259.902 212.151L262.104 212.079Z" fill="#ECF2F8"/>
<path d="M276.581 204.729C276.502 204.502 276.454 204.296 276.436 204.068C276.267 202.05 277.817 201.635 278.35 201.59L280.588 201.403C280.569 201.654 280.579 201.875 280.597 202.089C280.633 202.53 280.737 202.933 280.926 203.426L284.934 214.544C285.821 213.535 286.62 212.229 287.342 210.818L284.192 202.472C284.152 202.365 284.007 202.329 283.877 202.338L283.89 202.14C284.536 201.309 285.49 200.825 286.457 200.714C287.553 200.624 288.472 200.979 288.811 201.912L290.026 205.243C291.395 202.521 293.074 200.145 295.586 199.931C297.802 199.744 299.778 201.74 300.001 204.382C300.392 208.92 297.007 212.666 290.661 216.654L289.549 216.751L287.76 211.964C286.111 214.873 284.191 217.411 281.427 217.643L276.582 204.745L276.581 204.729ZM296.952 205.616C296.8 203.827 295.972 202.77 294.723 202.877C293.086 203.018 291.802 204.635 290.563 206.754L293.221 214.054C296.936 210.571 297.068 207.017 296.944 205.616L296.952 205.616Z" fill="#ECF2F8"/>
<path d="M304.95 205.236C304.903 205.077 304.772 204.987 304.62 205.004C304.582 205.005 304.498 205.029 304.407 205.068L302.171 206.071L301.972 205.989L301.619 205.231L301.723 205.017L306.363 202.917C306.719 202.753 306.954 202.697 307.19 202.671C308.005 202.577 308.62 203.004 308.882 203.877L311.474 212.611C311.609 213.067 311.962 213.284 312.335 213.241L312.5 213.605L312.342 213.828C311.395 214.259 310.371 214.729 309.511 214.831C308.583 214.933 307.809 214.615 307.398 213.401C306.476 214.045 304.396 215.434 302.455 215.656C301.26 215.793 300.174 214.868 300.029 213.582C299.833 211.9 301.065 210.406 302.847 209.615L305.856 208.267L304.943 205.229L304.95 205.236ZM305.136 209.846C304.044 210.332 303.247 211.18 303.358 212.147C303.451 212.953 304.084 213.578 305.036 213.468C305.173 213.451 305.309 213.426 305.461 213.379L307.23 212.808L306.198 209.391L305.144 209.846L305.136 209.846Z" fill="#ECF2F8"/>
<path d="M317.207 211.421L312.879 203.508C312.825 203.402 312.687 203.374 312.558 203.39L312.571 203.184C313.17 202.323 313.987 201.81 314.945 201.654C316.041 201.511 316.777 201.83 317.276 202.746L320.114 207.917C320.277 208.22 320.373 208.577 320.432 208.988C320.633 210.495 320.192 212.459 320.005 212.766L320.028 212.781L320.737 212.11C324.09 208.951 324.326 206.44 324.158 205.17C323.923 203.412 322.68 202.07 320.655 202.339C320.199 202.398 319.712 202.533 319.243 202.76L319.065 202.594C319.371 202.027 320.529 200.77 322.257 200.536C325.369 200.116 326.416 202.154 326.633 203.744C327.153 207.633 322.981 211.183 321.834 212.134C318.039 215.283 317.712 218.443 317.971 220.345C318.215 222.187 319.556 223.428 321.207 223.21C322.182 223.076 323.396 222.68 324.215 221.717L324.839 222.22C323.532 223.844 321.781 225.207 319.536 225.509C317.002 225.853 314.948 224.33 314.638 222.04C314.47 220.807 314.675 218.8 317.598 215.349C317.897 214.873 317.98 214.194 317.888 213.516C317.779 212.71 317.479 211.905 317.214 211.413L317.207 211.421Z" fill="#ECF2F8"/>
<path d="M335.553 207.683L335.501 196.486C335.459 196.228 335.336 196.107 335.1 196.148L335.098 195.943C335.697 195.074 336.719 194.505 337.669 194.303C338.666 194.138 339.473 194.73 339.63 195.681C339.646 195.788 339.655 195.902 339.656 196.009L339.707 206.397C339.711 206.679 339.714 206.931 339.731 207.06C339.903 208.087 340.68 208.634 341.767 208.453C343.471 208.173 344.848 206.045 344.834 203.69L344.79 195.092C344.708 194.598 344.431 194.342 343.997 194.408L343.985 193.395C344.67 193.364 345.912 193.287 346.688 193.156C347.152 193.082 348.466 192.753 348.937 192.587L348.997 206.208C349.001 206.536 349.003 206.764 349.004 206.802C349.053 207.107 349.322 207.301 349.634 207.244C349.756 207.228 349.839 207.188 350.013 207.087L350.22 207.153L350.633 207.926L350.567 208.14C349.47 208.748 348.355 209.188 347.236 209.377C346.05 209.567 345.073 208.847 344.884 207.714C344.842 207.448 344.831 207.181 344.844 206.35C343.903 208.526 341.919 210.25 339.606 210.622C337.415 210.976 335.873 210.126 335.601 208.452C335.576 208.285 335.557 207.98 335.553 207.668L335.553 207.683Z" fill="#ECF2F8"/>
<path d="M352.091 193.715C352.05 193.479 351.918 193.336 351.683 193.385L351.68 193.179C352.249 192.295 353.271 191.703 354.221 191.494C355.21 191.314 356.033 191.921 356.196 192.857C356.229 193.024 356.248 193.359 356.25 194.121C356.981 192.199 358.419 190.733 360.092 190.431C362.853 189.932 365.09 191.498 365.63 194.479C366.357 198.503 363.98 202.274 360.359 202.928C358.937 203.182 357.574 202.673 356.411 201.658L356.541 207.366C355.891 207.755 355.215 208.014 354.5 208.145C353.793 208.276 353.076 208.254 352.396 208.118L352.076 193.715L352.091 193.715ZM359.489 201.544C361.36 201.201 362.018 197.695 361.503 194.873C361.176 193.048 360.37 191.983 359.344 192.17C357.632 192.481 356.272 194.662 356.323 197.002L356.397 200.568C357.261 201.381 358.294 201.749 359.489 201.537L359.489 201.544Z" fill="#ECF2F8"/>
</g>
<defs>
<filter id="filter0_d_123_217" x="0.345215" y="0.24707" width="465.309" height="189.397" filterUnits="userSpaceOnUse" color-interpolation-filters="sRGB">
<feFlood flood-opacity="0" result="BackgroundImageFix"/>
<feColorMatrix in="SourceAlpha" type="matrix" values="0 0 0 0 0 0 0 0 0 0 0 0 0 0 0 0 0 0 127 0" result="hardAlpha"/>
<feOffset dy="4"/>
<feGaussianBlur stdDeviation="2"/>
<feComposite in2="hardAlpha" operator="out"/>
<feColorMatrix type="matrix" values="0 0 0 0 1 0 0 0 0 1 0 0 0 0 1 0 0 0 0.5 0"/>
<feBlend mode="normal" in2="BackgroundImageFix" result="effect1_dropShadow_123_217"/>
<feBlend mode="normal" in="SourceGraphic" in2="effect1_dropShadow_123_217" result="shape"/>
</filter>
<filter id="filter1_d_123_217" x="102.38" y="163.505" width="265.381" height="66.053" filterUnits="userSpaceOnUse" color-interpolation-filters="sRGB">
<feFlood flood-opacity="0" result="BackgroundImageFix"/>
<feColorMatrix in="SourceAlpha" type="matrix" values="0 0 0 0 0 0 0 0 0 0 0 0 0 0 0 0 0 0 127 0" result="hardAlpha"/>
<feOffset dy="2"/>
<feGaussianBlur stdDeviation="1"/>
<feComposite in2="hardAlpha" operator="out"/>
<feColorMatrix type="matrix" values="0 0 0 0 1 0 0 0 0 1 0 0 0 0 1 0 0 0 0.5 0"/>
<feBlend mode="normal" in2="BackgroundImageFix" result="effect1_dropShadow_123_217"/>
<feBlend mode="normal" in="SourceGraphic" in2="effect1_dropShadow_123_217" result="shape"/>
</filter>
</defs>
</svg>
